<svg width="40" height="40" viewBox="0 0 40 40" fill="none" xmlns="http://www.w3.org/2000/svg">
<path d="M37.4995 -0.000427246C38.2155 -0.000427246 38.8111 0.237173 39.2863 0.712373C39.7615 1.18757 39.9991 1.78317 39.9991 2.49917C39.9991 3.20237 39.7583 3.79477 39.2767 4.27637L23.5339 19.9988L39.2767 35.7212C39.7583 36.2028 39.9991 36.7952 39.9991 37.4984C39.9991 38.2144 39.7615 38.81 39.2863 39.2852C38.8111 39.7604 38.2155 39.998 37.4995 39.998C36.7963 39.998 36.2039 39.7572 35.7223 39.2756L19.9999 23.5328L4.27753 39.2756C3.79593 39.7572 3.20353 39.998 2.50033 39.998C1.78433 39.998 1.18873 39.7604 0.713533 39.2852C0.238333 38.81 0.000732422 38.2144 0.000732422 37.4984C0.000732422 36.7952 0.241533 36.2028 0.723133 35.7212L16.4659 19.9988L0.723133 4.27637C0.241533 3.79477 0.000732422 3.20237 0.000732422 2.49917C0.000732422 1.78317 0.238333 1.18757 0.713533 0.712373C1.18873 0.237173 1.78433 -0.000427246 2.50033 -0.000427246C3.20353 -0.000427246 3.79593 0.240373 4.27753 0.721973L19.9999 16.4648L35.7223 0.721973C36.2039 0.240373 36.7963 -0.000427246 37.4995 -0.000427246Z" fill="#797675"/>
</svg>
